<svg xmlns="http://www.w3.org/2000/svg" width="126" height="122" viewBox="0 0 126 122">
    <g fill="none" fill-rule="evenodd">
        <g fill-rule="nonzero">
            <g>
                <g fill="#FFF">
                    <path d="M28.61 24.964L28.61 30.902.473 30.902 17.721 7.084 4.058 7.084 4.058 1.349 28.881 1.349 12.039 24.964zM58.844 12.415v18.42H52.42V27.46c-2.638 3.576-6.561 4.453-9.064 4.453-7.102 0-12.242-3.576-12.242-9.851 0-5.465 3.044-9.716 15.962-9.648h5.276c0-3.981-2.367-6.41-7.034-6.41-3.315 0-5.344 1.417-8.117 3.508L33.683 5.06C36.523 2.361 40.38.27 45.181.27c7.305 0 13.663 3.643 13.663 12.145zm-6.493 5.127h-6.899c-5.952 0-7.643 1.89-7.643 4.251 0 2.766 2.3 4.453 7.034 4.453 4.397 0 7.508-3.98 7.508-8.704zM92.595 30.767c0 9.716-7.71 14.641-15.557 14.641-5.275 0-9.063-1.35-12.512-3.98l2.908-4.926c2.57 1.822 5.546 2.969 8.32 2.969 5.884 0 10.28-2.43 10.28-9.919v-2.9c-2.3 3.305-5.614 5.262-9.604 5.262-8.793 0-14.678-6.68-14.678-15.856C61.752 6.68 67.163.202 76.43.202c3.923 0 7.304 1.62 9.604 4.858V1.35h6.493l.068 29.417zm-7.575-8.164c3.517-8.839-.136-16.126-7.44-16.126-5.48 0-8.726 3.981-8.726 9.581 0 7.017 5.682 12.077 14.407 8.232.812-.27 1.42-.878 1.759-1.687zM124.52 12.415v18.42h-6.426V27.46c-2.638 3.576-6.56 4.453-9.063 4.453-7.035 0-12.243-3.576-12.243-9.851 0-5.465 3.044-9.716 15.963-9.648h5.275c0-3.981-2.367-6.41-7.034-6.41-3.314 0-5.343 1.417-8.049 3.508L99.426 5.06c2.84-2.699 6.696-4.79 11.498-4.79 7.305 0 13.595 3.643 13.595 12.145zm-6.426 5.127h-6.967c-6.02 0-7.643 1.89-7.643 4.251 0 2.766 2.3 4.453 7.035 4.453 4.464 0 7.575-3.98 7.575-8.704z" transform="translate(-25 -19) translate(25 19) translate(0 76.12)"/>
                </g>
                <g>
                    <path fill="#FB6C03" d="M55.374 6.818l-4.524 6.477c6.753 4.909 11.21 12.886 11.21 21.953 0 14.863-11.953 26.931-26.675 26.931-5.74 0-11.074-1.84-15.396-4.977l-4.525 6.477-.067-.068c5.74 4.295 12.83 6.818 20.529 6.818 19.043 0 34.507-15.613 34.507-34.84-.067-11.93-6.01-22.499-15.059-28.771z" transform="translate(-25 -19) translate(25 19) translate(26.068)"/>
                    <path fill="#FFF" d="M19.921 57.202c-6.82-4.909-11.277-12.886-11.277-21.954 0-14.863 11.952-26.93 26.674-26.93 5.807 0 11.142 1.84 15.464 4.977l4.592-6.477C49.634 2.523 42.544 0 34.845 0 15.802 0 .338 15.613.338 34.84c0 11.93 5.942 22.43 14.991 28.77l.068.069 4.524-6.477z" transform="translate(-25 -19) translate(25 19) translate(26.068)"/>
                </g>
            </g>
        </g>
    </g>
</svg>
